<?xml version="1.0" standalone="no"?>
<!DOCTYPE svg PUBLIC "-//W3C//DTD SVG 20010904//EN"
 "http://www.w3.org/TR/2001/REC-SVG-20010904/DTD/svg10.dtd">
<svg version="1.0" xmlns="http://www.w3.org/2000/svg"
 width="308.000000pt" height="143.000000pt" viewBox="0 0 308.000000 143.000000"
 preserveAspectRatio="xMidYMid meet">

<g transform="translate(0.000000,143.000000) scale(0.100000,-0.100000)"
fill="var(--lightfont-color)00" stroke="none">
<path d="M1335 775 c0 -247 1 -347 2 -222 2 126 2 328 0 450 -1 122 -2 20 -2
-228z"/>
<path d="M1584 1110 c0 -38 4 -70 8 -70 4 0 15 11 23 24 22 33 16 85 -11 103
-21 13 -21 12 -20 -57z"/>
<path d="M1784 1089 c3 -17 6 -58 6 -90 0 -52 2 -59 20 -59 18 0 20 7 20 74 0
54 -4 79 -16 90 -25 26 -37 19 -30 -15z"/>
<path d="M2150 1100 c0 -11 7 -20 15 -20 8 0 15 9 15 20 0 11 -7 20 -15 20 -8
0 -15 -9 -15 -20z"/>
<path d="M2407 1113 c-12 -11 -8 -21 13 -26 18 -5 20 -14 20 -76 0 -69 1 -71
25 -71 24 0 25 2 25 68 0 76 -17 112 -54 112 -12 0 -26 -3 -29 -7z"/>
<path d="M2820 1106 c0 -15 24 -28 34 -19 13 14 5 33 -14 33 -11 0 -20 -6 -20
-14z"/>
<path d="M3040 1098 c0 -19 2 -20 10 -8 13 19 13 30 0 30 -5 0 -10 -10 -10
-22z"/>
<path d="M1980 1080 c0 -24 -5 -31 -27 -36 -62 -13 -73 -22 -73 -59 0 -43 34
-65 73 -48 13 6 35 9 50 6 27 -5 27 -5 27 55 0 70 -13 112 -35 112 -10 0 -15
-10 -15 -30z m-2 -82 c-4 -31 -58 -40 -58 -9 0 20 12 29 43 30 14 1 18 -5 15
-21z"/>
<path d="M2640 1081 c0 -26 -5 -30 -45 -40 -48 -12 -70 -39 -60 -71 12 -39 76
-49 97 -16 6 8 8 7 8 -1 0 -7 10 -13 23 -13 22 0 23 3 19 73 -4 87 -7 97 -27
97 -10 0 -15 -10 -15 -29z m0 -70 c0 -24 -14 -41 -35 -41 -32 0 -42 20 -20 37
21 15 55 18 55 4z"/>
<path d="M560 1058 c11 -18 20 -38 20 -44 0 -15 -142 -104 -164 -104 -10 0
-31 7 -47 16 -54 27 -42 7 13 -24 65 -37 155 -68 227 -77 l54 -7 -5 68 c-3 38
-13 85 -23 104 -18 37 -73 100 -87 100 -4 0 1 -15 12 -32z"/>
<path d="M2941 1053 c-1 -18 -5 -33 -11 -33 -5 0 -2 -20 7 -44 21 -56 8 -96
-32 -96 -18 0 -25 -5 -25 -20 0 -22 16 -25 55 -10 18 7 33 27 49 62 40 91 41
96 10 100 -21 2 -30 11 -40 38 l-12 35 -1 -32z"/>
<path d="M2087 1063 c-4 -3 -7 -33 -7 -65 0 -51 2 -58 20 -58 15 0 20 7 20 28
0 15 3 44 6 65 6 32 4 37 -13 37 -11 0 -23 -3 -26 -7z"/>
<path d="M2220 1005 c0 -58 2 -65 20 -65 17 0 20 7 20 49 0 27 3 56 6 65 5 12
0 16 -20 16 -25 0 -26 -2 -26 -65z"/>
<path d="M2330 1005 c0 -58 2 -65 20 -65 17 0 20 7 20 43 0 23 3 52 6 65 5 19
2 22 -20 22 -25 0 -26 -2 -26 -65z"/>
<path d="M2730 1012 c0 -55 56 -94 110 -77 34 11 24 33 -17 37 -33 3 -39 7
-47 36 -12 42 -46 46 -46 4z"/>
<path d="M1677 1023 c-4 -3 -7 -24 -7 -45 0 -31 3 -38 20 -38 17 0 20 7 20 45
0 43 -14 58 -33 38z"/>
<path d="M743 991 c-19 -10 -33 -26 -36 -41 -3 -14 -5 -26 -4 -27 1 0 19 19
40 43 21 24 37 43 35 43 -2 -1 -17 -9 -35 -18z"/>
<path d="M796 968 c-38 -34 -80 -120 -64 -130 21 -13 107 -9 138 7 32 17 60
51 60 75 0 12 -85 70 -103 70 -3 0 -17 -10 -31 -22z"/>
<path d="M1477 983 c-15 -15 -7 -43 13 -43 15 0 20 7 20 25 0 24 -18 34 -33
18z"/>
<path d="M291 899 c14 -19 44 -47 67 -64 24 -18 41 -40 44 -55 3 -24 6 -25 86
-28 56 -2 82 1 77 8 -3 5 -13 10 -21 10 -32 0 -161 68 -219 115 -56 45 -58 46
-34 14z"/>
<path d="M2258 875 c-9 -20 -8 -28 5 -43 10 -11 17 -35 17 -60 0 -31 4 -42 15
-42 14 0 19 20 16 66 -1 12 5 24 13 27 16 7 21 33 10 61 -10 27 -62 20 -76 -9z"/>
<path d="M1563 795 c-57 -29 -96 -74 -118 -136 -18 -51 -19 -183 -1 -224 l13
-30 8 58 c8 59 21 80 36 56 6 -9 9 -10 9 -2 0 6 -4 15 -10 18 -19 12 -10 82
18 136 47 91 151 124 249 80 65 -30 96 -86 101 -188 4 -74 2 -88 -21 -135 -42
-84 -118 -121 -211 -104 l-36 7 17 27 c13 20 8 17 -18 -10 -20 -21 -43 -38
-50 -38 -38 -1 53 -33 105 -37 81 -7 138 10 187 54 69 63 84 102 84 224 0 100
-2 108 -30 154 -17 27 -50 63 -74 80 -38 26 -52 30 -124 33 -72 3 -88 0 -134
-23z"/>
<path d="M2350 790 c-10 -18 -8 -20 19 -18 40 4 41 -13 2 -32 -33 -16 -40 -30
-16 -30 54 0 96 60 60 87 -27 19 -53 16 -65 -7z"/>
<path d="M945 763 c-95 -31 -107 -37 -90 -47 69 -39 111 -123 102 -204 l-5
-43 32 7 c56 12 146 43 175 60 40 24 61 65 61 121 0 60 -25 104 -73 126 -49
24 -77 21 -202 -20z"/>
<path d="M2290 654 c0 -14 4 -23 10 -19 6 3 10 15 10 26 0 10 -4 19 -10 19 -5
0 -10 -12 -10 -26z"/>
<path d="M2340 648 c0 -30 1 -31 16 -16 9 9 14 24 11 32 -11 27 -27 17 -27
-16z"/>
<path d="M2405 660 c-4 -12 -1 -27 5 -35 27 -33 78 -5 65 35 -4 14 -15 20 -35
20 -20 0 -31 -6 -35 -20z"/>
<path d="M514 611 c-66 -40 -104 -127 -87 -197 l9 -38 134 -44 c159 -51 241
-62 287 -38 52 26 73 62 73 122 0 45 -5 59 -30 88 -27 30 -51 41 -175 80 -79
25 -151 46 -162 46 -10 0 -32 -9 -49 -19z"/>
<path d="M1630 596 c0 -9 -6 -13 -13 -10 -7 2 -22 -6 -33 -18 l-19 -23 22 18
c38 33 34 1 -7 -51 -45 -56 -53 -77 -15 -42 33 31 44 18 16 -20 -12 -17 -17
-30 -12 -30 6 0 15 9 21 21 7 12 18 18 26 15 11 -4 12 -2 1 17 -6 12 -16 26
-22 30 -6 5 3 19 23 36 32 27 41 54 22 66 -5 3 -10 -1 -10 -9z"/>
<path d="M2343 561 c1 -16 5 -27 10 -24 10 6 9 41 -3 48 -5 3 -8 -7 -7 -24z"/>
<path d="M2290 554 c0 -14 4 -23 10 -19 6 3 10 15 10 26 0 10 -4 19 -10 19 -5
0 -10 -12 -10 -26z"/>
<path d="M2062 554 c-12 -8 -22 -26 -22 -39 0 -24 0 -24 30 -7 29 17 30 17 55
-10 14 -16 30 -28 35 -28 6 0 10 -36 10 -80 0 -47 4 -80 10 -80 6 0 10 43 10
108 0 95 -2 111 -20 130 -25 26 -75 29 -108 6z"/>
<path d="M2636 549 c-21 -17 -26 -18 -26 -5 0 11 -9 16 -30 16 l-30 0 0 -79
c0 -70 2 -79 20 -84 16 -4 20 -14 20 -46 0 -23 5 -41 10 -41 6 0 10 30 10 69
0 85 11 117 46 133 23 11 28 10 40 -7 8 -10 14 -38 14 -62 0 -36 3 -43 20 -43
17 0 20 -7 20 -45 0 -26 5 -45 11 -45 7 0 10 37 7 116 -3 101 -6 117 -22 130
-28 20 -79 17 -110 -7z"/>
<path d="M2888 552 c-32 -19 -58 -68 -58 -106 0 -31 2 -31 66 -10 66 22 77 34
31 34 -39 0 -44 7 -24 32 12 16 27 21 58 19 19 -1 43 -48 29 -56 -24 -15 -9
-35 25 -35 34 0 35 1 35 41 0 82 -90 127 -162 81z"/>
<path d="M2000 550 c19 -13 30 -13 30 0 0 6 -10 10 -22 10 -19 0 -20 -2 -8
-10z"/>
<path d="M2410 486 c0 -66 2 -75 20 -81 16 -5 20 -15 20 -51 0 -24 5 -44 10
-44 6 0 10 48 10 125 l0 125 -30 0 -30 0 0 -74z"/>
<path d="M1549 523 c-13 -16 -12 -17 4 -4 16 13 21 21 13 21 -2 0 -10 -8 -17
-17z"/>
<path d="M1510 480 c-8 -5 -12 -12 -9 -15 4 -3 12 1 19 10 14 17 11 19 -10 5z"/>
<path d="M2291 464 c0 -11 3 -14 6 -6 3 7 2 16 -1 19 -3 4 -6 -2 -5 -13z"/>
<path d="M1609 417 c-10 -19 -10 -20 2 -11 8 6 21 13 28 16 12 3 12 6 -2 11
-11 4 -21 -1 -28 -16z"/>
<path d="M2291 384 c0 -11 3 -14 6 -6 3 7 2 16 -1 19 -3 4 -6 -2 -5 -13z"/>
<path d="M2998 353 c-21 -5 -24 -43 -4 -43 28 0 46 12 46 31 0 19 -8 21 -42
12z"/>
<path d="M2460 273 c-14 -3 -29 -8 -34 -13 -5 -5 8 -5 29 0 20 4 39 11 42 14
7 6 4 6 -37 -1z"/>
<path d="M2717 83 c-5 -9 -10 -50 -8 -70 1 -8 20 -12 57 -12 45 1 54 4 50 16
-3 8 -6 26 -6 39 0 34 -28 31 -32 -3 -5 -42 -33 -37 -32 5 2 30 -17 45 -29 25z"/>
<path d="M2850 54 c-15 -38 -12 -56 8 -52 12 2 18 14 20 41 4 43 -14 50 -28
11z"/>
<path d="M2568 53 c-9 -41 2 -53 47 -53 34 0 47 5 60 23 14 20 14 22 0 25 -9
2 -25 -4 -35 -13 -22 -20 -40 -12 -40 16 0 24 -26 25 -32 2z"/>
<path d="M2918 63 c7 -3 16 -2 19 1 4 3 -2 6 -13 5 -11 0 -14 -3 -6 -6z"/>
<path d="M2960 29 c0 -29 1 -30 42 -27 24 2 43 9 46 17 3 10 -2 12 -21 7 -20
-5 -29 -1 -37 14 -16 29 -30 24 -30 -11z"/>
<path d="M2423 23 c-46 -6 -41 -23 6 -23 25 0 41 5 45 15 3 9 0 14 -7 13 -7 0
-27 -3 -44 -5z"/>
</g>
</svg>
